<svg xmlns="http://www.w3.org/2000/svg" viewBox="0 0 800 600" width="100%" height="100%">
    <defs>
        <linearGradient id="bg-grad" x1="0%" y1="0%" x2="100%" y2="100%">
            <stop offset="0%" stop-color="#f0f2f5" />
            <stop offset="100%" stop-color="#e6f7ff" />
        </linearGradient>
        <filter id="shadow" x="-5%" y="-5%" width="110%" height="110%">
            <feDropShadow dx="0" dy="10" stdDeviation="15" flood-color="#000000" flood-opacity="0.05" />
        </filter>
    </defs>
    
    <rect width="800" height="600" rx="30" fill="url(#bg-grad)" />
    <circle cx="650" cy="150" r="200" fill="#1890ff" opacity="0.05" />
    <circle cx="150" cy="450" r="150" fill="#722ed1" opacity="0.05" />

    <rect x="100" y="120" width="600" height="380" rx="16" fill="#ffffff" filter="url(#shadow)" />
    
    <rect x="100" y="120" width="600" height="50" rx="16" fill="#fafafa" />
    <circle cx="130" cy="145" r="6" fill="#ff4d4f" />
    <circle cx="150" cy="145" r="6" fill="#faad14" />
    <circle cx="170" cy="145" r="6" fill="#52c41a" />
    <rect x="100" y="160" width="600" height="10" fill="#f0f0f0" />

    <rect x="100" y="170" width="120" height="330" fill="#fafafa" />
    <rect x="115" y="190" width="90" height="12" rx="6" fill="#e6f7ff" />
    <rect x="115" y="220" width="70" height="8" rx="4" fill="#d9d9d9" />
    <rect x="115" y="240" width="80" height="8" rx="4" fill="#d9d9d9" />
    <rect x="115" y="260" width="60" height="8" rx="4" fill="#d9d9d9" />

    <rect x="250" y="200" width="180" height="120" rx="12" fill="#ffffff" stroke="#f0f0f0" stroke-width="2" />
    <path d="M 270 280 L 310 240 L 350 260 L 390 210" fill="none" stroke="#1890ff" stroke-width="4" stroke-linecap="round" stroke-linejoin="round" />
    <circle cx="390" cy="210" r="6" fill="#1890ff" />
    
    <rect x="460" y="200" width="200" height="120" rx="12" fill="#ffffff" stroke="#f0f0f0" stroke-width="2" />
    <rect x="480" y="260" width="20" height="40" rx="4" fill="#722ed1" opacity="0.8"/>
    <rect x="520" y="230" width="20" height="70" rx="4" fill="#1890ff" opacity="0.8"/>
    <rect x="560" y="270" width="20" height="30" rx="4" fill="#13c2c2" opacity="0.8"/>
    <rect x="600" y="210" width="20" height="90" rx="4" fill="#fa8c16" opacity="0.8"/>

    <rect x="250" y="350" width="410" height="120" rx="12" fill="#ffffff" stroke="#f0f0f0" stroke-width="2" />
    <rect x="270" y="370" width="370" height="16" rx="4" fill="#fafafa" />
    <rect x="270" y="400" width="100" height="8" rx="4" fill="#d9d9d9" />
    <rect x="420" y="400" width="60" height="8" rx="4" fill="#d9d9d9" />
    <rect x="550" y="400" width="80" height="8" rx="4" fill="#e6f7ff" />
    
    <rect x="270" y="430" width="120" height="8" rx="4" fill="#d9d9d9" />
    <rect x="420" y="430" width="50" height="8" rx="4" fill="#d9d9d9" />
    <rect x="550" y="430" width="60" height="8" rx="4" fill="#f6ffed" />

    <rect x="580" y="80" width="160" height="60" rx="30" fill="#ffffff" filter="url(#shadow)" />
    <circle cx="610" cy="110" r="16" fill="#52c41a" />
    <path d="M 603 110 L 608 115 L 617 105" fill="none" stroke="#ffffff" stroke-width="3" stroke-linecap="round" stroke-linejoin="round" />
    <rect x="635" y="100" width="70" height="8" rx="4" fill="#595959" />
    <rect x="635" y="115" width="40" height="6" rx="3" fill="#8c8c8c" />
</svg>
